Coordinates
version=1
nRows=19
nColumns=33
inDegrees=yes

Units are S.I. units (second, meters, Newtons, ...)
Angles are in degrees.

endheader
time	ground_thorax_rot_x	ground_thorax_rot_y	ground_thorax_rot_z	ground_thorax_tx	ground_thorax_ty	ground_thorax_tz	clav_prot_r	clav_elev_r	scapula_abduction_r	scapula_elevation_r	scapula_upward_rot_r	scapula_winging_r	shoulder_elv_r	plane_of_elev_r	axial_rot_r	elbow_flexion_r	pro_sup_r	wrist_flex_r	wrist_dev_r	clav_prot_l	clav_elev_l	scapula_abduction_l	scapula_elevation_l	scapula_upward_rot_l	scapula_winging_l	shoulder_elv_l	plane_of_elev_l	axial_rot_l	elbow_flexion_l	pro_sup_l	wrist_flex_l	wrist_dev_l
      2.40000000	      0.79951787	      1.06905682	     12.75449056	     -0.11297050	      1.03199568	      0.01636843	     10.34181001	     -7.65801517	     18.21877706	     -0.99084030	      0.52929942	     -4.93884705	    -53.45829611	    -71.83034303	     88.61765481	    -55.60386891	   -129.71796063	     47.83142876	    -24.99999983	      7.87746099	     -0.09460665	     -8.27875333	    -21.61140146	    -34.62070636	     -3.04870668	     51.69523885	    -36.76382846	      2.46189735	     55.59858379	     34.49961692	     -4.87560079	    -24.99999983
      2.41000000	      0.80176284	      1.03949005	     12.78619299	     -0.11314813	      1.03176584	      0.01644575	     10.33772164	     -7.66510786	     18.21249755	     -0.99632694	      0.52864793	     -4.93411368	    -53.46206709	    -71.82222126	     88.61337863	    -55.60432840	   -129.71371380	     47.83705942	    -24.99999983	      7.88124051	     -0.10108053	     -8.28229006	    -21.59525883	    -34.59923017	     -3.04438147	     51.70445859	    -36.73160269	      2.46173596	     55.60937038	     34.49841937	     -4.88340159	    -24.99999983
      2.42000000	      0.80318779	      1.01816355	     12.83004731	     -0.11334162	      1.03154169	      0.01648371	     10.33315435	     -7.67626209	     18.20840995	     -1.00916700	      0.53501092	     -4.92935506	    -53.46146433	    -71.81043940	     88.60806654	    -55.61272817	   -129.70949457	     47.84440483	    -24.99999983	      7.88361040	     -0.10994389	     -8.28428318	    -21.57666236	    -34.57971704	     -3.03928416	     51.71043365	    -36.69586426	      2.45736100	     55.61705389	     34.49810874	     -4.89143438	    -24.99999983
      2.43000000	      0.80499127	      1.00132641	     12.88097309	     -0.11353611	      1.03131036	      0.01650306	     10.32782692	     -7.69092953	     18.20642066	     -1.02797592	      0.54855435	     -4.92421458	    -53.45506449	    -71.79575746	     88.59953767	    -55.63227974	   -129.70520331	     47.85462863	    -24.99999983	      7.88620263	     -0.11914535	     -8.28770258	    -21.55853965	    -34.56141080	     -3.03232544	     51.71619977	    -36.66071999	      2.44814139	     55.61590895	     34.49928782	     -4.89994754	    -24.99999983
      2.44000000	      0.17267610	      1.38835260	     12.89195133	     -0.11362079	      1.03159846	      0.01645925	      9.75273130	     -9.48019547	     16.73439339	     -2.12715015	     -0.67685146	     -3.63046872	    -54.08105551	    -72.00729064	     86.31122122	    -56.12919830	   -128.08908090	     50.26989405	    -24.99999983	      8.23107654	      0.67900015	     -8.73647400	    -22.14627684	    -34.15522973	     -2.88929789	     51.70455245	    -35.99346355	      1.71134551	     54.78123413	     34.90978968	     -8.02865590	    -24.99999983
      2.45000000	      0.17104215	      1.37257937	     12.93584571	     -0.11376359	      1.03128247	      0.01645392	      9.74534159	     -9.48154976	     16.73142700	     -2.13771358	     -0.65462408	     -3.62878639	    -54.07261566	    -71.99697569	     86.30615267	    -56.14729494	   -128.09316925	     50.27095264	    -24.99999983	      8.23491274	      0.66973186	     -8.74174889	    -22.12718662	    -34.13612763	     -2.88239469	     51.71810755	    -35.97026197	      1.71254276	     54.77955771	     34.91044356	     -8.03257422	    -24.99999983
      2.46000000	      0.19012953	      1.45842173	     12.86118884	     -0.11391428	      1.03106389	      0.01674410	      9.67659438	     -9.42987397	     16.64060450	     -2.11814803	     -0.59091793	     -3.61503134	    -54.07953449	    -71.86502377	     86.25342595	    -56.45621573	   -128.16210103	     50.31443102	    -24.99999983	      8.29796971	      0.54822939	     -8.86255613	    -21.95892982	    -34.04878510	     -2.79981891	     51.81613155	    -35.87366695	      1.56391388	     54.41834033	     34.98336591	     -8.10695407	    -24.99999983
      2.47000000	      0.19054896	      1.45537452	     12.86772077	     -0.11381677	      1.03062166	      0.01668073	      9.67559870	     -9.43157497	     16.64033287	     -2.12059509	     -0.58859932	     -3.61483760	    -54.07849316	    -71.86380363	     86.25310365	    -56.45794356	   -128.16243317	     50.31455434	    -24.99999983	      8.29916822	      0.54585013	     -8.86372673	    -21.95581571	    -34.04674564	     -2.80090080	     51.81695970	    -35.86983094	      1.56250870	     54.41850828	     34.98353936	     -8.10730972	    -24.99999983
      2.48000000	      0.29445815	      1.54101962	     12.80310073	     -0.11428266	      1.03032596	      0.01698977	      9.63579066	     -9.41930653	     16.53332432	     -2.07473562	     -0.67212872	     -3.57342227	    -54.05281285	    -71.86511237	     86.13244263	    -56.97865836	   -128.25895368	     50.40996606	    -24.99999983	      8.42245206	      0.41893639	     -9.09653296	    -21.78590477	    -33.97350098	     -2.67065972	     51.92185481	    -35.68737174	      1.03737049	     54.03165347	     35.10378074	     -8.22127592	    -24.99999983
      2.49000000	      0.29461892	      1.53775895	     12.80813899	     -0.11417387	      1.02993511	      0.01693130	      9.63489822	     -9.42048160	     16.53248678	     -2.07577218	     -0.67130305	     -3.57343715	    -54.05201658	    -71.86436566	     86.13174835	    -56.97960981	   -128.25932721	     50.40999645	    -24.99999983	      8.42278499	      0.41726269	     -9.09796896	    -21.78328835	    -33.97132294	     -2.67126550	     51.92332320	    -35.68419138	      1.03641253	     54.03204743	     35.10387010	     -8.22181527	    -24.99999983
      2.50000000	      0.29081179	      1.49772997	     12.83290747	     -0.11425853	      1.02959818	      0.01695026	      9.62993585	     -9.41450041	     16.52425970	     -2.07096286	     -0.67040145	     -3.57185617	    -54.04265458	    -71.86657142	     86.11873340	    -56.99864845	   -128.26458505	     50.41241794	    -24.99999983	      8.43191888	      0.41472896	     -9.11191187	    -21.76881929	    -33.94894395	     -2.65776402	     51.94725247	    -35.66288371	      1.02369298	     54.03178436	     35.10528736	     -8.22687933	    -24.99999983
      2.51000000	      0.29088131	      1.49460255	     12.83535113	     -0.11415248	      1.02929009	      0.01689300	      9.62943272	     -9.41528366	     16.52362960	     -2.07117717	     -0.67019817	     -3.57208919	    -54.04208169	    -71.86626117	     86.11809627	    -57.00182786	   -128.26520853	     50.41288451	    -24.99999983	      8.43323544	      0.41351017	     -9.11425463	    -21.76719272	    -33.94699047	     -2.65830566	     51.94940858	    -35.66113517	      1.02132473	     54.03074840	     35.10560658	     -8.22727147	    -24.99999983
      2.52000000	     -0.06247395	      2.21925250	     12.80390456	     -0.11381323	      1.02954495	      0.01738969	      8.29936451	    -10.97681017	     13.44821865	     -2.69723078	     -2.58639931	     -1.67376773	    -54.17626463	    -72.91407740	     85.10369496	    -58.83799684	   -130.35968481	     49.99281580	    -24.99999983	      8.69050406	      0.07588538	     -9.76246969	    -21.78505196	    -34.71456137	     -2.48775042	     53.74317720	    -35.65915205	     -0.88892136	     54.06286828	     35.04931175	    -11.03571439	    -24.99999983
      2.53000000	     -0.06107084	      2.21392802	     12.80588972	     -0.11369513	      1.02935029	      0.01734276	      8.29869058	    -10.97668465	     13.44765507	     -2.69771954	     -2.58712785	     -1.67415893	    -54.17681800	    -72.91411884	     85.10407080	    -58.83816740	   -130.35972567	     49.99286443	    -24.99999983	      8.69337946	      0.07487755	     -9.76417078	    -21.78349141	    -34.71106125	     -2.48831011	     53.74568851	    -35.65589170	     -0.88950356	     54.06266745	     35.04923537	    -11.03583259	    -24.99999983
      2.54000000	      0.08112781	      2.30739138	     12.72037519	     -0.11385135	      1.02873987	      0.01759886	      8.21044603	    -10.85354150	     13.23649909	     -2.53068973	     -2.71582939	     -1.63524402	    -54.22305116	    -73.05918538	     85.05134295	    -59.39612466	   -130.55458286	     50.02907570	    -24.99999983	      8.83517384	      0.15895906	     -9.99677897	    -21.81383379	    -34.61632420	     -2.38170144	     53.71231732	    -35.36901914	     -1.40955119	     53.91015688	     35.02439009	    -11.09709741	    -24.99999983
      2.55000000	      0.08650698	      2.27914967	     12.72578426	     -0.11381318	      1.02865662	      0.01765318	      8.20890237	    -10.85243344	     13.23255417	     -2.52867251	     -2.71843317	     -1.63303785	    -54.22717702	    -73.06157007	     85.05435969	    -59.40786423	   -130.55829181	     50.03011721	    -24.99999983	      8.84415370	      0.16507848	    -10.01008607	    -21.81005874	    -34.60053786	     -2.37283586	     53.73206038	    -35.36095184	     -1.41218018	     53.91679108	     35.02182786	    -11.09998062	    -24.99999983
      2.56000000	      0.08789219	      2.27562290	     12.72774376	     -0.11366928	      1.02864665	      0.01759988	      8.20868094	    -10.85290155	     13.23244507	     -2.52913676	     -2.71791377	     -1.63359986	    -54.22721074	    -73.06179355	     85.05465933	    -59.41092516	   -130.55886410	     50.03051077	    -24.99999983	      8.84600643	      0.16496919	    -10.01295641	    -21.81001331	    -34.59745420	     -2.37383443	     53.73492349	    -35.35946184	     -1.41293860	     53.91841190	     35.02147910	    -11.10032729	    -24.99999983
      2.57000000	     -0.10411898	      2.58580649	     12.76895464	     -0.11411362	      1.02811528	      0.01778583	      7.64884873	    -11.60095594	     11.62931682	     -2.54481482	     -4.30384306	     -0.65314965	    -54.86380034	    -74.17478369	     84.42137206	    -61.62222783	   -134.36741440	     48.70419810	    -24.99999983	      9.33127846	      0.11771215	    -11.04077181	    -22.10761490	    -35.37056887	     -2.08345271	     54.35843214	    -35.17944676	     -1.98876540	     54.43295597	     33.71603827	    -11.71676245	    -24.99999983
      2.58000000	     -0.11441280	      2.57286378	     12.80279330	     -0.11411203	      1.02827471	      0.01779184	      7.64217046	    -11.59560481	     11.63315616	     -2.55535245	     -4.26920214	     -0.65913639	    -54.84156220	    -74.19395719	     84.40447568	    -61.66783107	   -134.37421116	     48.71235587	    -24.99999983	      9.34163570	      0.12979449	    -11.05580423	    -22.10808752	    -35.34802750	     -2.07370271	     54.38203142	    -35.16700086	     -1.99012994	     54.45491260	     33.71205252	    -11.71965786	    -24.99999983
